<svg width="12" height="10" viewBox="0 0 12 10" fill="none" xmlns="http://www.w3.org/2000/svg">
    <path
        d="M6.54227 3.90647L6.4267 3.82943C6.31113 3.71385 6.11851 3.75238 6.04146 3.86795C5.92589 3.98352 5.96441 4.17614 6.07999 4.25319L6.19556 4.33024C6.4267 4.52286 6.4267 4.83105 6.23408 5.10072L6.07999 5.29334C5.96441 5.40891 6.00294 5.60153 6.11851 5.67858C6.23408 5.79415 6.4267 5.75562 6.50375 5.64005L6.65785 5.44743C7.04308 4.98514 7.00456 4.29171 6.54227 3.90647Z"
        fill="white" />
    <path
        d="M4.84702 6.87284L3.15196 8.99165C2.95934 9.2228 2.61263 9.26132 2.42001 9.10723L0.763475 7.75889C0.532331 7.56627 0.532331 7.25807 0.724951 6.98841L3.92244 3.05896C4.11506 2.82782 4.46178 2.78929 4.6544 2.94339L4.80849 3.05896C4.92406 3.17453 5.11668 3.13601 5.19373 3.02044C5.3093 2.90487 5.27078 2.71225 5.15521 2.6352L5.00111 2.51963C4.53882 2.13439 3.84539 2.24996 3.46015 2.71225L0.262663 6.64169C-0.122576 7.10398 -0.0840523 7.79741 0.378235 8.18265L2.03477 9.53099C2.49705 9.91623 3.19049 9.80066 3.57573 9.33837L5.27078 7.21955C5.38635 7.10398 5.34783 6.91136 5.23226 6.83431C5.11668 6.71874 4.96259 6.75726 4.84702 6.87284Z"
        fill="white" />
    <path fill-rule="evenodd" clip-rule="evenodd"
        d="M9.2771 0.246661L10.8181 1.51795C11.3189 1.90319 11.3959 2.59662 10.9722 3.09743L7.81319 7.02688C7.42795 7.48917 6.73452 7.56622 6.23371 7.18098L4.69275 5.90968C4.23046 5.52445 4.15341 4.83101 4.53865 4.3302L7.69762 0.400756C8.08286 -0.0615312 8.77629 -0.138579 9.2771 0.246661ZM7.38943 6.68016L10.5484 2.75072C10.741 2.48105 10.7025 2.13434 10.4713 1.94172L8.93039 0.670424C8.66072 0.477804 8.314 0.516328 8.12138 0.747472L4.96242 4.67692C4.7698 4.94659 4.80832 5.2933 5.03946 5.48592L6.58042 6.75721C6.85009 6.94983 7.19681 6.91131 7.38943 6.68016Z"
        fill="white" />
</svg>